<?xml version="1.0" standalone="no"?>
<!DOCTYPE svg PUBLIC "-//W3C//DTD SVG 20010904//EN"
 "http://www.w3.org/TR/2001/REC-SVG-20010904/DTD/svg10.dtd">
<svg version="1.0" xmlns="http://www.w3.org/2000/svg"
 width="1202.000000pt" height="1202.000000pt" viewBox="0 0 1202.000000 1202.000000"
 preserveAspectRatio="xMidYMid meet">
<metadata>
Created by potrace 1.11, written by Peter Selinger 2001-2013
</metadata>
<g transform="translate(0.000000,1202.000000) scale(0.100000,-0.100000)"
fill="#000000" stroke="none">
<path d="M11025 9922 c-3 -4 -32 -10 -63 -14 -99 -13 -166 -25 -202 -37 -19
-7 -48 -15 -65 -18 -16 -3 -38 -9 -47 -14 -9 -5 -26 -9 -37 -9 -12 0 -21 -4
-21 -10 0 -5 -10 -10 -23 -10 -13 0 -27 -4 -33 -8 -5 -5 -47 -24 -94 -42 -47
-18 -89 -37 -94 -42 -6 -4 -18 -8 -27 -8 -10 0 -19 -4 -21 -8 -3 -9 -93 -52
-108 -52 -5 0 -10 -4 -10 -8 0 -5 -23 -19 -52 -33 -50 -23 -249 -139 -273
-159 -7 -5 -15 -7 -18 -3 -4 3 -7 1 -7 -5 0 -7 -7 -12 -15 -12 -8 0 -15 -4
-15 -10 0 -5 -7 -10 -15 -10 -8 0 -15 -4 -15 -9 0 -5 -8 -11 -17 -15 -10 -3
-45 -26 -78 -50 -33 -25 -66 -45 -72 -45 -7 -1 -13 -5 -13 -11 0 -5 -7 -10
-15 -10 -8 0 -15 -4 -15 -8 0 -4 -18 -19 -40 -32 -22 -14 -40 -28 -40 -32 0
-5 -7 -8 -15 -8 -8 0 -15 -3 -15 -8 0 -4 -18 -18 -40 -32 -22 -14 -40 -28 -40
-32 0 -5 -7 -8 -15 -8 -8 0 -15 -4 -15 -9 0 -5 -24 -25 -52 -44 -29 -19 -66
-47 -81 -61 -15 -14 -32 -26 -36 -26 -4 0 -21 -12 -37 -28 -16 -15 -45 -38
-64 -52 -19 -13 -42 -32 -50 -41 -9 -9 -58 -51 -110 -94 -52 -42 -111 -91
-130 -109 -20 -17 -65 -56 -100 -86 -78 -66 -75 -63 -142 -125 -30 -27 -86
-79 -124 -115 -296 -273 -414 -387 -414 -401 0 -6 -4 -8 -9 -5 -5 3 -11 -1
-15 -9 -5 -13 -367 -15 -3131 -15 -2967 0 -3126 -1 -3133 -17 -4 -10 -7 -62
-7 -115 l0 -97 35 -36 c19 -19 49 -41 67 -47 18 -7 33 -16 33 -20 0 -4 11 -8
23 -8 13 0 27 -3 31 -7 3 -4 21 -12 40 -18 64 -22 124 -69 150 -116 33 -60 35
-146 5 -266 -21 -83 -91 -268 -110 -288 -5 -5 -9 -16 -9 -25 0 -8 -8 -27 -17
-40 -10 -14 -18 -31 -20 -39 -1 -8 -6 -17 -10 -20 -5 -3 -15 -22 -23 -41 -7
-19 -14 -36 -15 -38 -1 -1 -33 13 -71 32 -38 19 -94 44 -124 56 -30 12 -66 27
-80 33 -14 6 -27 11 -30 11 -11 2 -96 29 -115 36 -11 4 -47 14 -80 21 -33 7
-64 16 -69 21 -6 4 -32 8 -58 8 -26 0 -48 4 -48 8 0 4 -19 9 -42 11 -23 1 -46
5 -51 8 -21 13 -425 43 -577 43 -206 0 -323 -10 -368 -32 -126 -62 -157 -254
-56 -354 13 -13 28 -24 34 -24 5 0 10 -3 10 -8 0 -4 14 -13 31 -21 25 -11 68
-13 203 -8 274 10 602 -16 781 -62 22 -5 60 -15 85 -20 72 -16 205 -63 262
-92 10 -5 25 -9 33 -9 8 0 15 -5 15 -12 0 -6 3 -8 7 -5 5 5 102 -42 121 -58 2
-2 -7 -43 -21 -92 -24 -82 -49 -186 -76 -308 -16 -75 -49 -305 -61 -435 -23
-237 -7 -603 35 -805 32 -153 97 -368 145 -480 37 -84 158 -328 185 -370 14
-22 29 -49 35 -60 16 -32 88 -144 102 -159 7 -8 36 -47 63 -86 28 -40 69 -93
92 -117 24 -25 43 -49 43 -52 1 -22 282 -311 400 -411 35 -30 77 -67 92 -82
16 -15 43 -37 61 -50 18 -12 38 -28 45 -35 7 -7 17 -13 20 -13 4 0 18 -10 32
-22 14 -13 54 -43 90 -68 36 -24 71 -50 78 -56 6 -7 21 -16 32 -19 11 -3 20
-11 20 -16 0 -5 7 -9 15 -9 8 0 15 -4 15 -10 0 -5 7 -10 15 -10 8 0 15 -4 15
-10 0 -5 7 -10 15 -10 8 0 15 -5 15 -12 0 -6 3 -8 7 -5 3 4 20 -3 37 -16 17
-12 52 -34 79 -47 26 -14 47 -28 47 -32 0 -5 8 -8 18 -8 10 0 22 -4 27 -9 10
-10 189 -100 337 -170 l88 -41 2133 0 c1173 0 2137 4 2142 8 6 5 26 15 45 22
107 39 403 191 538 277 29 18 55 33 57 33 8 0 248 163 260 176 6 6 45 36 88
68 43 32 90 69 105 83 15 14 42 37 60 51 19 14 48 39 66 56 151 145 249 242
260 258 8 11 39 46 70 78 31 32 56 65 56 74 0 9 4 16 9 16 6 0 40 39 78 87 37
49 71 90 75 91 5 2 8 9 8 15 0 7 10 24 23 39 12 15 36 50 52 78 17 29 40 67
52 86 13 19 49 85 80 147 32 61 60 114 64 117 3 3 8 14 11 25 4 11 29 74 56
140 47 114 88 232 98 284 3 14 8 29 11 34 9 15 43 195 59 322 38 286 13 763
-56 1080 -16 70 -70 289 -81 323 -7 22 -7 37 -1 45 17 20 290 147 316 147 7 0
31 7 52 16 22 9 77 25 124 35 115 26 113 26 210 39 47 6 107 16 134 22 28 6
170 10 345 10 370 0 378 2 444 98 29 41 32 52 32 122 0 69 -3 81 -31 120 -16
23 -48 55 -69 69 -38 25 -49 27 -241 37 -110 5 -214 8 -230 5 -16 -2 -92 -8
-169 -13 -153 -9 -270 -23 -355 -40 -30 -6 -68 -14 -85 -16 -118 -18 -468
-126 -495 -154 -3 -3 -13 -6 -22 -8 -10 -1 -43 -16 -74 -32 -31 -17 -61 -30
-68 -30 -11 0 -89 146 -136 255 -11 28 -25 59 -30 70 -63 138 -91 308 -67 404
16 62 122 141 227 171 19 5 59 24 88 40 83 48 106 117 81 243 l-12 57 -976 0
-976 0 56 53 c31 28 92 83 135 120 44 37 90 78 104 90 14 12 45 38 69 57 23
19 53 43 64 54 12 10 37 30 56 45 19 14 49 39 65 54 17 16 47 41 66 55 57 44
144 111 160 125 8 7 28 21 45 32 16 10 39 27 50 38 11 10 47 37 80 60 33 23
69 49 80 60 11 10 61 46 110 79 50 34 92 64 95 67 12 14 70 51 80 51 5 0 10 5
10 10 0 6 7 10 15 10 8 0 15 4 15 9 0 5 14 14 30 21 17 7 30 16 30 21 0 5 6 9
13 9 8 0 22 9 32 20 10 11 22 20 26 20 4 0 28 14 52 30 25 17 48 30 53 30 4 0
15 6 23 14 16 13 76 48 156 90 22 12 46 27 53 34 8 7 18 10 23 7 5 -4 9 -2 9
3 0 5 8 12 18 15 9 3 28 13 42 21 24 14 127 63 260 124 69 31 206 81 280 102
67 18 70 19 75 21 2 1 24 6 47 10 24 4 79 15 123 23 97 19 236 21 253 4 7 -7
12 -9 12 -6 0 10 90 -11 158 -38 115 -46 174 -127 159 -220 -7 -44 -50 -134
-93 -197 -43 -62 -48 -83 -41 -163 8 -85 42 -135 117 -173 69 -35 137 -34 214
3 40 20 58 37 82 78 112 190 155 381 123 554 -15 84 -36 133 -90 214 -36 54
-121 140 -138 140 -5 0 -11 3 -13 8 -4 10 -128 72 -144 72 -7 0 -14 3 -16 8
-4 10 -130 43 -208 55 -76 11 -316 18 -325 9z m630 -842 c3 -5 15 -10 26 -10
10 0 19 -4 19 -10 0 -5 6 -10 13 -10 20 0 41 -58 38 -105 -1 -23 -35 -64 -68
-82 -55 -31 -119 0 -148 72 -24 55 6 111 74 142 33 15 39 15 46 3z"/>
</g>
</svg>
